<svg width="1440" height="298" viewBox="0 0 1440 298" fill="none" xmlns="http://www.w3.org/2000/svg">
<path fill-rule="evenodd" clip-rule="evenodd" d="M-95 250.694L-23.3333 203.388C48.3333 154.981 191.667 60.3692 335 60.3692C478.333 60.3692 621.667 154.981 765 147.28C908.333 139.579 1051.67 28.465 1195 5.36201C1338.33 -18.8411 1481.67 44.9672 1553.33 75.7712L1625 107.675V298H1553.33C1481.67 298 1338.33 298 1195 298C1051.67 298 908.333 298 765 298C621.667 298 478.333 298 335 298C191.667 298 48.3333 298 -23.3333 298H-95V250.694Z" fill="#0141BB"/>
</svg>
